:FULLY-SPECIFIED
:FORCE-ALL-JOINTS-BE-3DOF
:DEGREES
306
root 9.31744 15.3113 -23.9297 21.6579 64.4366 27.4248
lfemur -14.9502 17.217 -18.8331
ltibia 53.7236 0 0
lfoot -21.9279 -32.1421 0
ltoes 68.2286 0 0
rfemur -51.0525 -13.8618 31.9744
rtibia 53.1682 0 0
rfoot 1.70501 -1.89732 0
rtoes 16.4103 0 0
lowerback 9.85548 -3.07567 -8.01586
upperback 5.28744 -4.51935 -4.77538
thorax 0.281426 -2.27015 -0.150245
lowerneck -3.53276 -11.9091 -2.69597
upperneck -1.60185 -15.8293 10.3538
head 1.2823 -7.89917 3.3217
lclavicle -7.38866e-14 -6.19954e-15 0
lhumerus -44.2047 -48.095 102.644
lradius 60.0302 0 0
lwrist 18.8826 0 0
lhand 18.701 12.4043 0
lfingers 7.12502 0 0
lthumb 43.3247 36.55 0
rclavicle -7.38866e-14 -6.19954e-15 0
rhumerus -38.3453 33.1854 -78.9736
rradius 75.411 0 0
rwrist -5.66839 0 0
rhand -17.5042 -17.4274 0
rfingers 7.12502 0 0
rthumb 8.78878 -767.467 0
307
root 9.26562 15.3384 -23.9379 20.5525 63.2289 25.8925
lfemur -15.209 17.6417 -18.7475
ltibia 53.2309 0 0
lfoot -22.4034 -31.665 0
ltoes 69.131 0 0
rfemur -52.4037 -14.6781 32.2112
rtibia 54.1154 0 0
rfoot 2.09165 -0.0278775 0
rtoes 12.5124 0 0
lowerback 10.0877 -2.90589 -7.9147
upperback 5.29235 -4.30739 -4.79135
thorax 0.136113 -2.16052 -0.222098
lowerneck -3.66425 -11.8585 -2.31118
upperneck -2.10234 -15.7345 10.431
head 1.10751 -7.86169 3.29815
lclavicle -6.90117e-14 -6.10933e-15 0
lhumerus -44.621 -48.7378 102.964
lradius 59.9352 0 0
lwrist 18.8326 0 0
lhand 18.4806 12.0895 0
lfingers 7.12502 0 0
lthumb 43.1192 36.3124 0
rclavicle -6.90117e-14 -6.10933e-15 0
rhumerus -34.7166 32.4626 -76.3064
rradius 74.6262 0 0
rwrist -7.52955 0 0
rhand -16.5546 -17.6353 0
rfingers 7.12502 0 0
rthumb 9.7081 -767.665 0
308
root 9.21117 15.3677 -23.9396 19.4388 61.9523 24.3203
lfemur -15.4627 18.056 -18.6508
ltibia 52.694 0 0
lfoot -22.7934 -31.0302 0
ltoes 69.7476 0 0
rfemur -53.7324 -15.4708 32.3541
rtibia 55.0885 0 0
rfoot 2.48819 1.76492 0
rtoes 8.6376 0 0
lowerback 10.2865 -2.73762 -7.79445
upperback 5.28465 -4.09574 -4.79289
thorax -0.00420594 -2.05112 -0.290457
lowerneck -3.7992 -11.8018 -1.92857
upperneck -2.5972 -15.6317 10.4929
head 0.933488 -7.81993 3.26999
lclavicle -6.3988e-14 -5.9536e-15 0
lhumerus -45.0428 -49.3308 103.305
lradius 59.8356 0 0
lwrist 18.7862 0 0
lhand 18.2362 11.7834 0
lfingers 7.12502 0 0
lthumb 42.891 36.0893 0
rclavicle -6.3988e-14 -5.9536e-15 0
rhumerus -31.1042 31.6872 -73.6671
rradius 73.8476 0 0
rwrist -9.31055 0 0
rhand -15.5214 -17.7862 0
rfingers 7.12502 0 0
rthumb 10.7066 -767.787 0
309
root 9.1546 15.3989 -23.9324 18.3228 60.5975 22.7162
lfemur -15.702 18.4616 -18.5382
ltibia 52.1164 0 0
lfoot -23.0875 -30.2157 0
ltoes 70.0155 0 0
rfemur -55.0206 -16.2345 32.3947
rtibia 56.064 0 0
rfoot 2.88954 3.44952 0
rtoes 4.83249 0 0
lowerback 10.4455 -2.57141 -7.65579
upperback 5.26428 -3.88486 -4.77881
thorax -0.135768 -1.94223 -0.354023
lowerneck -3.93622 -11.7383 -1.55009
upperneck -3.08294 -15.5206 10.5392
head 0.761307 -7.77367 3.23738
lclavicle -5.88985e-14 -5.73267e-15 0
lhumerus -45.4677 -49.8676 103.666
lradius 59.7321 0 0
lwrist 18.7436 0 0
lhand 17.9638 11.4884 0
lfingers 7.12502 0 0
lthumb 42.6362 35.8841 0
rclavicle -5.88985e-14 -5.73267e-15 0
rhumerus -27.5278 30.8752 -71.0698
rradius 73.1035 0 0
rwrist -11.0011 0 0
rhand -14.3897 -17.8817 0
rfingers 7.12502 0 0
rthumb 11.7983 -767.83 0
310
root 9.09641 15.4316 -23.914 17.2106 59.1552 21.0884
lfemur -15.917 18.8606 -18.405
ltibia 51.5012 0 0
lfoot -23.2756 -29.1998 0
ltoes 69.872 0 0
rfemur -56.2503 -16.964 32.3243
rtibia 57.0187 0 0
rfoot 3.2906 4.99435 0
rtoes 1.14353 0 0
lowerback 10.5581 -2.40782 -7.49939
upperback 5.23114 -3.6752 -4.7479
thorax -0.254811 -1.83417 -0.411495
lowerneck -4.07394 -11.6677 -1.17769
upperneck -3.55607 -15.4008 10.5696
head 0.592064 -7.72268 3.2005
lclavicle -5.38267e-14 -5.44683e-15 0
lhumerus -45.8931 -50.3419 104.044
lradius 59.6249 0 0
lwrist 18.7048 0 0
lhand 17.6594 11.2066 0
lfingers 7.12502 0 0
lthumb 42.3512 35.6999 0
rclavicle -5.38267e-14 -5.44683e-15 0
rhumerus -24.0074 30.0427 -68.5283
rradius 72.4227 0 0
rwrist -12.5908 0 0
rhand -13.1446 -17.9235 0
rfingers 7.12502 0 0
rthumb 12.9974 -767.793 0
311
root 9.03709 15.4655 -23.8821 16.1081 57.6162 19.4451
lfemur -16.0984 19.2546 -18.2466
ltibia 50.8519 0 0
lfoot -23.3476 -27.9604 0
ltoes 69.2541 0 0
rfemur -57.4035 -17.6539 32.1342
rtibia 57.9291 0 0
rfoot 3.68625 6.36785 0
rtoes -2.38278 0 0
lowerback 10.6178 -2.24738 -7.32593
upperback 5.18514 -3.46719 -4.69896
thorax -0.357575 -1.72723 -0.461574
lowerneck -4.211 -11.5895 -0.813319
upperneck -4.0131 -15.272 10.5837
head 0.426849 -7.66674 3.1595
lclavicle -4.88557e-14 -5.09638e-15 0
lhumerus -46.3167 -50.7473 104.44
lradius 59.5147 0 0
lwrist 18.67 0 0
lhand 17.319 10.9406 0
lfingers 7.12502 0 0
lthumb 42.032 35.5398 0
rclavicle -4.88557e-14 -5.09638e-15 0
rhumerus -20.563 29.2054 -66.0564
rradius 71.8337 0 0
rwrist -14.0694 0 0
rhand -11.7711 -17.9131 0
rfingers 7.12502 0 0
rthumb 14.3179 -767.673 0
312
root 8.97715 15.5002 -23.8346 15.0216 55.9713 17.7946
lfemur -16.2365 19.6457 -18.0583
ltibia 50.1719 0 0
lfoot -23.2931 -26.4756 0
ltoes 68.0991 0 0
rfemur -58.4624 -18.2992 31.8158
rtibia 58.7719 0 0
rfoot 4.07141 7.53845 0
rtoes -5.69995 0 0
lowerback 10.6182 -2.09065 -7.1361
upperback 5.12621 -3.26129 -4.6308
thorax -0.440297 -1.62171 -0.502959
lowerneck -4.34602 -11.5033 -0.458934
upperneck -4.45054 -15.1341 10.5811
head 0.266753 -7.60562 3.11455
lclavicle -4.40687e-14 -4.68161e-15 0
lhumerus -46.736 -51.0773 104.851
lradius 59.4018 0 0
lwrist 18.6393 0 0
lhand 16.9386 10.6926 0
lfingers 7.12502 0 0
lthumb 41.6751 35.4073 0
rclavicle -4.40687e-14 -4.68161e-15 0
rhumerus -17.2144 28.3793 -63.6681
rradius 71.3649 0 0
rwrist -15.4265 0 0
rhand -10.2543 -17.8524 0
rfingers 7.12502 0 0
rthumb 15.774 -767.468 0
313
root 8.9171 15.5353 -23.7689 13.9569 54.211 16.145
lfemur -16.3217 20.0356 -17.8353
ltibia 49.4644 0 0
lfoot -23.102 -24.7237 0
ltoes 66.3442 0 0
rfemur -59.4089 -18.8944 31.3606
rtibia 59.5237 0 0
rfoot 4.44097 8.47459 0
rtoes -8.7615 0 0
lowerback 10.5528 -1.93819 -6.93056
upperback 5.05426 -3.05795 -4.54222
thorax -0.499215 -1.51792 -0.534351
lowerneck -4.47762 -11.4085 -0.116487
upperneck -4.8649 -14.9867 10.5615
head 0.112868 -7.53912 3.06582
lclavicle -3.9549e-14 -4.20284e-15 0
lhumerus -47.1486 -51.3256 105.277
lradius 59.2868 0 0
lwrist 18.6129 0 0
lhand 16.5144 10.4651 0
lfingers 7.12502 0 0
lthumb 41.2765 35.3054 0
rclavicle -3.9549e-14 -4.20284e-15 0
rhumerus -13.9817 27.5805 -61.3773
rradius 71.0451 0 0
rwrist -16.6519 0 0
rhand -8.57926 -17.7428 0
rfingers 7.12502 0 0
rthumb 17.3799 -767.176 0
314
root 8.85742 15.5706 -23.683 12.9202 52.3262 14.5044
lfemur -16.3445 20.4263 -17.5729
ltibia 48.7329 0 0
lfoot -22.764 -22.6827 0
ltoes 63.9265 0 0
rfemur -60.2251 -19.4343 30.7597
rtibia 60.1612 0 0
rfoot 4.78983 9.1447 0
rtoes -11.5209 0 0
lowerback 10.4151 -1.79053 -6.71001
upperback 4.96921 -2.8576 -4.43201
thorax -0.530569 -1.41614 -0.554449
lowerneck -4.60443 -11.3047 0.212069
upperneck -5.25269 -14.8295 10.5245
head -0.033717 -7.46699 3.01348
lclavicle -3.53799e-14 -3.66035e-15 0
lhumerus -47.5521 -51.4858 105.717
lradius 59.1702 0 0
lwrist 18.5907 0 0
lhand 16.0422 10.2602 0
lfingers 7.12502 0 0
lthumb 40.8326 35.2375 0
rclavicle -3.53799e-14 -3.66035e-15 0
rhumerus -10.8846 26.8247 -59.1978
rradius 70.9027 0 0
rwrist -17.7352 0 0
rhand -6.73103 -17.5861 0
rfingers 7.12502 0 0
rthumb 19.1495 -766.795 0
